<svg xmlns="http://www.w3.org/2000/svg" version="1.1" xmlns:xlink="http://www.w3.org/1999/xlink" xmlns:svgjs="http://svgjs.dev/svgjs" width="1000" height="1000" viewBox="0 0 1000 1000"><g transform="matrix(1,0,0,1,-0.14221556886212738,-0.14221556886229791)"><svg viewBox="0 0 334 334" data-background-color="#ffffff" preserveAspectRatio="xMidYMid meet" height="1000" width="1000" xmlns="http://www.w3.org/2000/svg" xmlns:xlink="http://www.w3.org/1999/xlink"><g id="tight-bounds" transform="matrix(1,0,0,1,0.04749999999998522,0.04750000000001364)"><svg viewBox="0 0 333.90454557049503 333.90454557049503" height="333.90454557049503" width="333.90454557049503"><g><svg></svg></g><g><svg viewBox="0 0 333.90454557049503 333.90454557049503" height="333.90454557049503" width="333.90454557049503"><g><path d="M0 166.952c0-92.205 74.747-166.952 166.952-166.952 92.205 0 166.952 74.747 166.953 166.952 0 92.205-74.747 166.952-166.953 166.953-92.205 0-166.952-74.747-166.952-166.953zM166.952 316.63c82.665 0 149.677-67.013 149.678-149.678 0-82.665-67.013-149.677-149.678-149.677-82.665 0-149.677 67.013-149.677 149.677 0 82.665 67.013 149.677 149.677 149.678z" data-fill-palette-color="tertiary" fill="#000000" stroke="transparent"></path><ellipse rx="160.27418187383762" ry="160.27418187383762" cx="166.95227278524752" cy="166.95227278524752" fill="#000000" stroke="transparent" stroke-width="0" fill-opacity="1" data-fill-palette-color="tertiary"></ellipse></g><g transform="matrix(1,0,0,1,96.20428224127932,71.17305217166896)"><svg viewBox="0 0 141.4959810879364 191.55844122715712" height="191.55844122715712" width="141.4959810879364"><g><svg viewBox="0 0 141.4959810879364 191.55844122715712" height="191.55844122715712" width="141.4959810879364"><g><svg viewBox="0 0 141.4959810879364 191.55844122715712" height="191.55844122715712" width="141.4959810879364"><g><svg viewBox="0 0 141.4959810879364 191.55844122715712" height="191.55844122715712" width="141.4959810879364"><g><svg viewBox="0 0 141.4959810879364 191.55844122715712" height="191.55844122715712" width="141.4959810879364" id="textblock"><g><svg viewBox="0 0 141.4959810879364 191.55844122715712" height="191.55844122715712" width="141.4959810879364"><g transform="matrix(1,0,0,1,0,0)"><svg width="141.4959810879364" viewBox="1.25 -26.950000762939453 20.350000381469727 27.55000114440918" height="191.55844122715712" data-palette-color="#ffffff"><path d="M11.9-26.95Q14.6-26.95 16.75-26.2 18.9-25.45 20.85-23.95L20.85-23.95 18.9-21.05Q17.1-22.2 15.48-22.75 13.85-23.3 12.05-23.3L12.05-23.3Q9.8-23.3 8.5-22.38 7.2-21.45 7.2-19.85L7.2-19.85Q7.2-18.25 8.43-17.35 9.65-16.45 12.85-15.6L12.85-15.6Q17.25-14.5 19.43-12.6 21.6-10.7 21.6-7.4L21.6-7.4Q21.6-3.5 18.57-1.45 15.55 0.6 11.2 0.6L11.2 0.6Q5.2 0.6 1.25-2.85L1.25-2.85 3.7-5.65Q7.05-3.1 11.1-3.1L11.1-3.1Q13.7-3.1 15.23-4.17 16.75-5.25 16.75-7.1L16.75-7.1Q16.75-8.45 16.2-9.28 15.65-10.1 14.3-10.73 12.95-11.35 10.35-12.05L10.35-12.05Q6.15-13.15 4.28-15 2.4-16.85 2.4-19.7L2.4-19.7Q2.4-21.75 3.63-23.43 4.85-25.1 7.03-26.03 9.2-26.95 11.9-26.95L11.9-26.95Z" opacity="1" transform="matrix(1,0,0,1,0,0)" fill="#ffffff" class="undefined-text-0" data-fill-palette-color="quaternary" id="text-0"></path></svg></g></svg></g></svg></g></svg></g><g></g></svg></g></svg></g></svg></g></svg></g><defs></defs></svg><rect width="333.90454557049503" height="333.90454557049503" fill="none" stroke="none" visibility="hidden"></rect></g></svg></g></svg>